HIERARCHY
ROOT Hips
{
	OFFSET 0.00000 0.00000 0.00000
	CHANNELS 6 Xposition Yposition Zposition Zrotation Yrotation Xrotation 
	JOINT LHipJoint
	{
		OFFSET 0 0 0
		CHANNELS 3 Zrotation Yrotation Xrotation
		JOINT LeftUpLeg
		{
			OFFSET 1.62067 -1.77917 0.70989
			CHANNELS 3 Zrotation Yrotation Xrotation
			JOINT LeftLeg
			{
				OFFSET 2.34532 -6.44371 0.00000
				CHANNELS 3 Zrotation Yrotation Xrotation
				JOINT LeftFoot
				{
					OFFSET 2.74224 -7.53425 0.00000
					CHANNELS 3 Zrotation Yrotation Xrotation
					JOINT LeftToeBase
					{
						OFFSET 0.17032 -0.46794 2.08086
						CHANNELS 3 Zrotation Yrotation Xrotation
						End Site
						{
							OFFSET 0.00000 -0.00000 1.07476
						}
					}
				}
			}
		}
	}
	JOINT RHipJoint
	{
		OFFSET 0 0 0
		CHANNELS 3 Zrotation Yrotation Xrotation
		JOINT RightUpLeg
		{
			OFFSET -1.55811 -1.77917 0.70989
			CHANNELS 3 Zrotation Yrotation Xrotation
			JOINT RightLeg
			{
				OFFSET -2.33243 -6.40830 0.00000
				CHANNELS 3 Zrotation Yrotation Xrotation
				JOINT RightFoot
				{
					OFFSET -2.78798 -7.65993 0.00000
					CHANNELS 3 Zrotation Yrotation Xrotation
					JOINT RightToeBase
					{
						OFFSET -0.22707 -0.62388 2.04059
						CHANNELS 3 Zrotation Yrotation Xrotation
						End Site
						{
							OFFSET -0.00000 -0.00000 1.07030
						}
					}
				}
			}
		}
	}
	JOINT LowerBack
	{
		OFFSET 0 0 0
		CHANNELS 3 Zrotation Yrotation Xrotation
		JOINT Spine
		{
			OFFSET 0.02203 1.91565 0.07161
			CHANNELS 3 Zrotation Yrotation Xrotation
			JOINT Spine1
			{
				OFFSET 0.01740 1.90525 0.11636
				CHANNELS 3 Zrotation Yrotation Xrotation
				JOINT Neck
				{
					OFFSET 0 0 0
					CHANNELS 3 Zrotation Yrotation Xrotation
					JOINT Neck1
					{
						OFFSET -0.10841 1.83566 0.05067
						CHANNELS 3 Zrotation Yrotation Xrotation
						JOINT Head
						{
							OFFSET 0.06601 1.74760 -0.50505
							CHANNELS 3 Zrotation Yrotation Xrotation
							End Site
							{
								OFFSET 0.03102 1.85215 -0.17697
							}
						}
					}
				}
				JOINT LeftShoulder
				{
					OFFSET 0 0 0
					CHANNELS 3 Zrotation Yrotation Xrotation
					JOINT LeftArm
					{
						OFFSET 2.87059 1.35470 0.16111
						CHANNELS 3 Zrotation Yrotation Xrotation
						JOINT LeftForeArm
						{
							OFFSET 5.43592 -0.00000 0.00000
							CHANNELS 3 Zrotation Yrotation Xrotation
							JOINT LeftHand
							{
								OFFSET 3.25460 -0.00000 0.00000
								CHANNELS 3 Zrotation Yrotation Xrotation
								JOINT LeftFingerBase
								{
									OFFSET 0 0 0
									CHANNELS 3 Zrotation Yrotation Xrotation
									JOINT LeftHandIndex1
									{
										OFFSET 0.49824 -0.00000 0.00000
										CHANNELS 3 Zrotation Yrotation Xrotation
										End Site
										{
											OFFSET 0.40170 -0.00000 0.00000
										}
									}
								}
								JOINT LThumb
								{
									OFFSET 0 0 0
									CHANNELS 3 Zrotation Yrotation Xrotation
									End Site
									{
										OFFSET 0.40783 -0.00000 0.40783
									}
								}
							}
						}
					}
				}
				JOINT RightShoulder
				{
					OFFSET 0 0 0
					CHANNELS 3 Zrotation Yrotation Xrotation
					JOINT RightArm
					{
						OFFSET -2.86643 1.23488 0.45957
						CHANNELS 3 Zrotation Yrotation Xrotation
						JOINT RightForeArm
						{
							OFFSET -5.33830 -0.00000 0.00000
							CHANNELS 3 Zrotation Yrotation Xrotation
							JOINT RightHand
							{
								OFFSET -3.23148 -0.00000 0.00000
								CHANNELS 3 Zrotation Yrotation Xrotation
								JOINT RightFingerBase
								{
									OFFSET 0 0 0
									CHANNELS 3 Zrotation Yrotation Xrotation
									JOINT RightHandIndex1
									{
										OFFSET -0.46364 -0.00000 0.00000
										CHANNELS 3 Zrotation Yrotation Xrotation
										End Site
										{
											OFFSET -0.37380 -0.00000 0.00000
										}
									}
								}
								JOINT RThumb
								{
									OFFSET 0 0 0
									CHANNELS 3 Zrotation Yrotation Xrotation
									End Site
									{
										OFFSET -0.37951 -0.00000 0.37951
									}
								}
							}
						}
					}
				}
			}
		}
	}
}
MOTION
Frames: 8
Frame Time: .0083333
4.5168 17.6862 1.7494 0 0 0 0 0 0 -21 0 0 0 0 0 0 0 0 0 0 0 0 0 0 21 0 0 0 0 0 0 0 0 0 0 0 0 0 0 0 0 0 0 0 0 0 0 -16 0 0 21 0 0 11 0 0 0 -8 0 0 0 0 0 0 0 0 0 0 0 0 0 0 0 0 0 0 0 0 8 0 0 0 0 0 0 0 0 0 0 0 0 0 0 0 0 0
4.5168 17.6862 1.7494 -4.8389 1.2447 23.3827 0.0000 0.0000 0.0000 -23.2880 -9.3808 -20.6144 0.5747 4.8548 13.4950 0.4907 4.1363 -15.3958 0.2462 3.1932 8.8171 0.0000 0.0000 0.0000 -2.9589 8.1805 -4.8709 0.0000 -0.0000 0.0000 -0.0284 -20.4895 -29.1524 -6.4490 -14.8498 46.7581 5.0647 -0.1352 -9.0504 5.4861 0.0668 -14.0505 3.1039 -0.1227 -10.0551 13.2107 19.9130 -3.3971 2.6049 25.5381 7.0688 0.3537 13.0373 4.3390 -0.0000 0.0000 0.0000 39.1139 -9.3703 -36.2588 15.8120 -25.2651 -3.5653 -0.0000 0.0000 -48.5328 32.3346 -12.3678 -7.7213 -7.1250 0.0000 -0.0000 3.4922 15.4500 -2.4403 -0.0000 0.0000 0.0000 -12.2073 -17.7905 -24.9748 -143.0280 46.1700 -103.7802 0.0000 -0.0000 -58.9706 -8.0139 -46.7135 5.8515 7.1250 -0.0000 -0.0000 50.1531 -71.3408 -33.9459
4.5071 17.6865 1.7520 -4.7604 1.1265 23.3749 0.0000 0.0000 0.0000 -23.3184 -9.5230 -20.4510 0.5580 4.7847 13.2954 0.4723 4.4424 -15.3739 0.2297 3.0845 8.5142 0.0000 0.0000 0.0000 -3.0663 8.2771 -4.9122 0.0000 -0.0000 0.0000 -0.2589 -19.6907 -29.7337 -6.5914 -14.9780 47.3116 4.8256 -0.1544 -9.0727 5.4722 0.0437 -14.0580 3.2211 -0.1113 -10.0458 13.4210 19.8844 -3.3777 2.4201 25.4979 7.4194 0.2931 13.0262 4.0490 0.0000 -0.0000 0.0000 39.2000 -9.5103 -36.3312 15.7406 -25.1677 -3.5349 -0.0000 0.0000 -48.2681 32.2087 -12.4101 -7.7098 -7.1250 0.0000 -0.0000 3.4015 15.4193 -2.3789 0.0000 -0.0000 0.0000 -12.0223 -17.5114 -25.0772 -142.9309 46.2343 -103.7101 0.0000 -0.0000 -58.9936 -7.9586 -46.7621 5.8155 7.1250 -0.0000 -0.0000 50.3200 -71.3504 -34.0850
4.5065 17.6877 1.7521 -4.7832 1.1561 23.3601 0.0000 0.0000 0.0000 -23.2795 -9.5388 -20.4045 0.5569 4.7801 13.2823 0.4735 4.4497 -15.3948 0.2299 3.0860 8.5182 0.0000 0.0000 0.0000 -3.0262 8.2588 -4.8914 0.0000 -0.0000 0.0000 -0.7788 -17.7588 -30.9553 -6.9694 -15.3061 48.7584 4.8459 -0.1650 -9.0548 5.4868 0.0327 -14.0746 3.2270 -0.1179 -10.0762 13.4242 19.8745 -3.3454 2.4001 25.4918 7.4014 0.2825 13.0222 4.0412 -0.0000 0.0000 0.0000 39.1732 -9.6351 -36.4690 15.6980 -25.1094 -3.5168 -0.0000 0.0000 -47.9589 32.3352 -12.5385 -7.8251 -7.1250 0.0000 -0.0000 3.4730 15.2517 -2.4416 -0.0000 0.0000 0.0000 -12.0249 -17.4975 -25.0606 -142.9717 46.2074 -103.7395 0.0000 -0.0000 -59.1609 -8.1673 -46.9531 5.9875 7.1250 -0.0000 -0.0000 50.6050 -71.5360 -34.4917
4.5077 17.6892 1.7521 -4.8330 1.1618 23.3782 0.0000 0.0000 0.0000 -23.2331 -9.5212 -20.3638 0.5476 4.7408 13.1707 0.4680 4.4810 -15.3460 0.2372 3.1344 8.6530 0.0000 0.0000 0.0000 -2.9800 8.2734 -4.9140 0.0000 -0.0000 0.0000 -0.8028 -17.6913 -31.0382 -7.0037 -15.3350 48.8882 4.8963 -0.1573 -9.1032 5.5158 0.0391 -14.0695 3.2297 -0.1177 -10.0440 13.2768 19.8913 -3.2994 2.4963 25.5312 6.9801 0.2981 13.0289 4.3151 -0.0000 0.0000 0.0000 39.1197 -9.5813 -36.4445 15.7247 -25.1460 -3.5282 -0.0000 0.0000 -47.9532 32.3123 -12.4967 -7.7929 -7.1250 0.0000 -0.0000 3.4623 15.3037 -2.4302 -0.0000 0.0000 0.0000 -12.1309 -17.6047 -24.9912 -142.9998 46.1887 -103.7598 0.0000 -0.0000 -59.1669 -8.5007 -46.9807 6.2363 7.1250 -0.0000 -0.0000 50.3816 -71.6694 -34.4497
4.5098 17.6875 1.7585 -4.6559 1.3671 23.2083 0.0000 0.0000 0.0000 -23.4304 -9.4649 -20.1215 0.5419 4.7163 13.1012 0.4763 4.2611 -15.2979 0.2390 3.1462 8.6861 0.0000 0.0000 0.0000 -3.0446 7.9982 -4.6574 0.0000 0.0000 -0.0000 -0.4651 -19.0078 -30.3046 -6.7690 -15.1342 47.9951 4.8345 -0.2472 -9.1178 5.4684 -0.0897 -13.9853 3.2065 -0.1783 -9.9304 13.4678 19.8539 -3.2030 2.1631 25.5089 7.1441 0.1877 13.0143 3.9750 0.0000 -0.0000 0.0000 39.1294 -9.5031 -36.3806 15.7480 -25.1777 -3.5381 -0.0000 0.0000 -48.0346 32.2095 -12.5260 -7.7801 -7.1250 0.0000 -0.0000 3.3888 15.2848 -2.3798 0.0000 -0.0000 0.0000 -12.1680 -17.6824 -25.0213 -142.9831 46.1998 -103.7478 0.0000 -0.0000 -59.2126 -8.8328 -46.9651 6.4801 7.1250 -0.0000 -0.0000 50.0509 -71.7771 -34.2977
4.5134 17.6836 1.7670 -4.4215 1.8373 22.8822 0.0000 0.0000 0.0000 -23.6637 -9.3818 -19.6615 0.5346 4.6851 13.0125 0.4944 3.8209 -15.2324 0.2353 3.1218 8.6181 0.0000 0.0000 0.0000 -3.0259 7.4419 -4.1531 0.0000 0.0000 0.0000 -0.2409 -19.8315 -29.7890 -6.6025 -14.9879 47.3546 4.8688 -0.4270 -8.9458 5.3905 -0.3229 -13.9527 3.1030 -0.3029 -9.9850 13.6865 19.7741 -3.2021 1.9666 25.4028 7.2231 0.1163 12.9619 4.0472 0.0000 -0.0000 0.0000 39.1497 -9.6008 -36.3307 15.7168 -25.1351 -3.5248 -0.0000 0.0000 -47.8620 32.1999 -12.6436 -7.8481 -7.1250 0.0000 -0.0000 3.3688 15.1500 -2.3754 0.0000 -0.0000 0.0000 -12.1975 -17.7109 -24.9903 -142.9873 46.1970 -103.7508 0.0000 -0.0000 -59.3645 -8.8370 -47.0433 6.4914 7.1250 -0.0000 -0.0000 50.2435 -71.8247 -34.4953
4.5127 17.6839 1.7663 -4.4243 2.1269 22.6770 0.0000 0.0000 0.0000 -23.6189 -9.3436 -19.3818 0.5272 4.6531 12.9217 0.4993 3.6188 -15.1636 0.2290 3.0804 8.5028 0.0000 0.0000 0.0000 -2.8497 7.1659 -3.8585 0.0000 -0.0000 0.0000 -0.4510 -19.0322 -30.2387 -6.7471 -15.1152 47.9113 4.9798 -0.5267 -8.7410 5.3933 -0.4393 -13.9662 3.0499 -0.3721 -10.1200 13.7530 19.7714 -3.0495 1.9752 25.4189 7.2232 0.0986 12.9725 4.0317 0.0000 -0.0000 0.0000 39.1586 -9.7178 -36.4687 15.6591 -25.0563 -3.5003 -0.0000 0.0000 -47.5630 32.0271 -12.7317 -7.8492 -7.1250 0.0000 -0.0000 3.2412 15.0736 -2.2905 0.0000 -0.0000 0.0000 -12.2208 -17.7508 -24.8704 -143.0301 46.1686 -103.7817 0.0000 -0.0000 -59.4076 -8.9510 -47.1299 6.5849 7.1250 -0.0000 -0.0000 50.3621 -71.9159 -34.6782
